<?xml version="1.0" standalone="no"?>
<!DOCTYPE svg PUBLIC "-//W3C//DTD SVG 20010904//EN"
 "http://www.w3.org/TR/2001/REC-SVG-20010904/DTD/svg10.dtd">
<svg version="1.0" xmlns="http://www.w3.org/2000/svg"
 width="1600.000000pt" height="896.000000pt" viewBox="0 0 1600.000000 896.000000"
 preserveAspectRatio="xMidYMid meet">

<g transform="translate(0.000000,896.000000) scale(0.100000,-0.100000)"
fill="#000000" stroke="none">
<path d="M0 4480 l0 -4480 8000 0 8000 0 0 4480 0 4480 -8000 0 -8000 0 0
-4480z m8369 909 c343 -80 583 -410 557 -769 -14 -195 -87 -357 -228 -498
-198 -199 -489 -277 -756 -202 -353 99 -581 438 -541 802 39 344 319 634 664
687 79 13 200 5 304 -20z m-1839 -19 c176 -28 303 -92 425 -215 142 -142 193
-259 202 -461 7 -152 -11 -239 -73 -364 -77 -154 -210 -275 -374 -343 -139
-57 -168 -61 -530 -64 -346 -2 -460 2 -460 18 0 5 22 9 49 9 65 0 107 30 135
95 21 49 21 62 21 615 0 558 0 566 -22 612 -26 58 -56 78 -127 85 -31 3 -56
10 -56 14 0 13 732 11 810 -1z m3770 -120 c0 -71 -4 -130 -8 -130 -4 0 -14 21
-20 47 -18 65 -72 115 -149 136 -75 22 -378 25 -385 5 -3 -7 -6 -260 -7 -563
-2 -675 4 -741 79 -780 16 -8 44 -15 62 -15 18 0 39 -4 46 -9 25 -15 -27 -20
-218 -21 -197 0 -320 8 -320 20 0 4 27 10 60 12 67 5 93 22 119 78 14 31 16
111 19 663 l3 629 -188 -4 c-181 -3 -190 -4 -243 -30 -61 -31 -98 -75 -107
-132 -12 -75 -23 -31 -23 94 l0 130 640 0 640 0 0 -130z m-4130 -1686 c22 -41
45 -72 50 -69 5 3 28 39 51 80 24 41 49 75 56 75 10 0 13 -28 13 -120 0 -99
-3 -120 -15 -120 -11 0 -15 18 -17 82 l-3 82 -39 -67 c-22 -37 -43 -67 -48
-67 -9 0 -64 82 -75 114 -5 14 -10 -6 -13 -59 -3 -55 -9 -80 -17 -80 -7 0 -13
3 -13 8 0 4 0 59 0 123 0 136 4 137 70 18z m1499 -32 c27 -61 46 -114 43 -117
-12 -12 -23 -3 -39 30 -16 33 -19 35 -68 35 -49 0 -52 -2 -68 -35 -16 -33 -27
-42 -39 -29 -6 6 78 211 95 232 15 19 23 7 76 -116z m610 117 c17 -6 31 -17
31 -25 0 -17 -14 -18 -42 -3 -34 18 -86 2 -108 -34 -29 -46 -25 -83 10 -118
25 -26 36 -30 72 -27 40 3 43 5 46 36 3 30 1 32 -27 32 -21 0 -31 5 -31 15 0
11 12 15 45 15 l45 0 0 -55 c0 -50 -2 -56 -26 -65 -101 -39 -190 22 -181 123
5 52 26 82 72 103 37 16 54 17 94 3z m787 -14 c36 -23 57 -78 49 -126 -19
-111 -181 -136 -229 -35 -31 66 -16 123 44 164 40 27 92 26 136 -3z m-2376 5
c0 -11 1 -11 -60 -13 -44 -2 -45 -3 -48 -40 l-3 -37 45 0 c34 0 46 -4 46 -15
0 -11 -12 -15 -45 -15 l-45 0 0 -40 0 -40 61 0 c44 0 60 -3 57 -12 -3 -9 -28
-13 -79 -13 l-74 0 -3 118 -3 117 76 0 c43 0 75 -4 75 -10z m360 -17 c57 -51
50 -153 -13 -192 -12 -8 -52 -16 -89 -19 l-68 -5 0 122 0 121 70 0 c62 0 73
-3 100 -27z m263 -90 c-1 -99 -4 -119 -17 -121 -14 -3 -16 12 -16 117 0 109 2
121 18 121 15 0 17 -12 15 -117z m1360 85 c23 -31 18 -69 -13 -96 -26 -22 -26
-25 11 -67 28 -31 29 -36 13 -42 -12 -4 -22 1 -33 17 -61 92 -96 103 -96 30 0
-33 -4 -45 -15 -45 -12 0 -16 21 -18 118 l-3 118 67 -3 c59 -3 69 -6 87 -30z
m667 -51 c0 -100 14 -127 65 -127 51 0 65 27 65 127 0 67 3 83 15 83 12 0 15
-17 15 -91 0 -87 -1 -92 -29 -120 -23 -22 -39 -29 -68 -29 -55 0 -89 37 -98
107 -9 66 2 133 21 133 11 0 14 -18 14 -83z m509 57 c44 -56 7 -124 -68 -124
-40 0 -40 0 -43 -42 -2 -30 -8 -43 -18 -43 -12 0 -15 19 -15 110 0 61 1 113 3
118 2 4 30 7 62 7 51 0 61 -3 79 -26z"/>
<path d="M8016 5348 c-82 -15 -186 -69 -253 -131 -163 -152 -239 -461 -175
-718 76 -308 309 -529 577 -546 269 -18 484 146 567 432 19 67 23 104 23 225
0 172 -19 251 -93 394 -57 111 -173 233 -269 284 -117 62 -255 84 -377 60z
m189 -602 c35 -15 65 -59 65 -96 0 -29 -27 -77 -49 -90 -11 -5 -38 -10 -61
-10 -106 0 -141 148 -46 194 39 19 48 19 91 2z"/>
<path d="M6180 5321 c-41 -4 -81 -10 -87 -14 -10 -6 -13 -134 -13 -585 0 -317
5 -595 10 -616 20 -89 65 -114 225 -123 335 -18 567 141 651 447 25 90 25 300
1 390 -54 194 -176 350 -337 429 -126 61 -283 87 -450 72z"/>
<path d="M7583 3560 c-12 -27 -18 -52 -15 -54 4 -2 22 -1 40 1 35 6 35 9 8 75
l-12 28 -21 -50z"/>
<path d="M8948 3615 c-38 -21 -53 -73 -34 -118 25 -61 92 -77 140 -32 46 43
32 134 -25 154 -40 14 -48 14 -81 -4z"/>
<path d="M6920 3530 l0 -90 38 0 c46 0 75 19 92 59 26 64 -15 121 -87 121
l-43 0 0 -90z"/>
<path d="M8553 3614 c-2 -7 -3 -27 -1 -46 3 -29 7 -33 35 -36 45 -4 77 28 62
62 -9 18 -21 25 -51 28 -25 2 -42 -1 -45 -8z"/>
<path d="M9740 3575 c0 -45 0 -45 34 -45 33 0 66 21 66 41 0 31 -22 49 -60 49
l-40 0 0 -45z"/>
</g>
</svg>
